<svg id="logo" data-name="logo" xmlns="http://www.w3.org/2000/svg" width="170px" height="26px"
  viewBox="0 0 255.1181 42.5197" preserveAspectRatio="xMidYMid meet">
  <defs>
    <style>.cls-1{fill:#3f3f3e;fill-rule:evenodd;}</style>
  </defs>
  <title>Greentom</title>
  <path class="cls-1"
    d="M120.422,13.2068l.2391,1.8816.1149,1.6284.4833,2.3767V21.224l-.1252,1.6314.1252,1.2513.1131,3.129v1l.237,1.7513v1.3764l.236,1.5074-.236,1.8766v1.1274l-.237,1.4993.1149,2.0076v.498h1.6665l2.0225.1321h1.43l2.4989-.1321.9491-.6281.8354-.6211-.4743-2.0017-.2439-2.2556.2439-2.1326-.12-1.9975-.353-1.76.2291-1.6233.2439-.8774h.83l.5961.6263.83,1.2543.7142,1.1224.5961,1.0011.5982.7563,1.0624,1.4973.8362,1.1335.8321,1.2482,1.1924,1.2525.478.754.83.3751.254.4663.0461.399.42.4292.568.2749.2421.0482.0181.009.9462.2481h3.0948l1.1924-.1262.8321-.245.3241-.47.1221-.0639V37.87l.5062-.7382.236-2.2575V32.006l.2381-1.1073.26-1.5766.058-1.7433.1461-1.5766-.0722-1.8955.1762-2.1885.06-2.12V18.3753l-.108-1.19.0481-1.6344-.0481-1.3053s.108-1.1443.108-1.3085c0-.161.046-1.5253.046-1.5253l-.046-1.3555-.108-1.2042s-.0559-1.3045-.0559-1.4666.104-1.6323.104-1.6323l-.2081-.8173-.62-.3241-.9263-.058a6.34,6.34,0,0,0-.6722-.1061c-.1561,0-1.6106.0541-1.6106.0541l-1.29.052-.9343.15-.8723.2321-.414.273-.4681.7064-.0981.9272-.052,1.1963v.9262l.15,1.1984v2.3936l.0559,1.2483v2.0156l.0521,1.1423v1.4125l.0559,1.0971v.9213l-.108,1.36-.154.9243-.2582.8193-.2078.7041-.4161.44-.41-.1631-.3682-.2771-.9784-.2141-.0219.1082-.0381-.0592-.568-.3831-.3581-.251-.37-.5472-.8321-1.38-.8362-1.7525-.8264-1.6284-.8342-1.5014-.8362-1.6265-.9442-2.0056-.8363-1.38-.95-1.6276-.5912-1.3782-1.0732-1.2474L128.2732,6.2l-.36-.88-1.0691-.2471H124.228l-1.0742.2471-1.1933.255-.9462.2471-.95.6283V9.5818l.358,2.1276Z"></path>
  <path class="cls-1"
    d="M95.8584,15.1164l.042,1.7655.018,1.8894.024,1.8944.153,1.7155.0379,2.0717-.0889,1.6344.0729,1.4514-.204,1.9.22,1.5382-.034,1.1606.1782,1.5263-.062,1.0022-.0562,1.1314.0781,1.0112-.07,1.2574L96.5,39.09l.5392,1.2842,1.4875-.169,1.9524.0991,2.3518-.003,1.9694-.2772,1.7116-.16,2.5007-.4991,2.1145-.3921,2.3747-.5092,1.4584-.43,1.7034-.7342.1081-1.3084.066-1.2592.069-1.2584-.4662-.9063s-.1989-.7-.7932-.7623c-.6031-.0639-1.7676-.1239-1.7676-.1239l-1.5634-.0841-2.0945.142-1.5894.2971-1.4344.053-1.0462-.0559-.5353-.2741-.5861-.6641-.0719-1.0153-.0342-.4593,1.2376-.415.931-.33,1.8105.1909,1.2245-.481,1.3153-.1811,1.2072-.5642.6943-.7242.212-1.5-.07-1.1451L113.283,23.46l-.56-1.1642-1.8215-.4773-1.05-.051-1.6895-.09-1.1562-.3092-1.0433-.0569-.7693-.2862-.4521-1.0512.244-.6563.0021-1.5843.9552-1.1305.5542-.9292.7323-.439,1.0191.02,1.4365.076,1.5825-.1709a1.5565,1.5565,0,0,0,1.1773-.19,4.1421,4.1421,0,0,1,1.4643-.5512l1.0813-.7021.4752-1.4843.3481-1.6225.1239-.7463L115.4,8.6956,114.41,7.6363l-1.4074-.3241-1.7974-.5971L109.8412,6.59l-1.35-.393L106.9274,6.12l-1.7225-.0572-1.7736-.3862-1.4223-.3189L100.46,5.02l-.98.0711a9.203,9.203,0,0,0-1.2293-.185c-.5211-.025-1.1763-.059-1.1763-.059l-.464.8612-.2862.8622-.456,1.5844.125,1.4354-.151,1.2373-.1791,1.1323.295,1.2713Z"></path>
  <path class="cls-1"
    d="M70.21,8.9826v1.8765l.1412,2.0145L70.21,17.0349l.4222,4.02.2721,2.2886v3.0778l.2852,4.3021v2.8189l-.1423,2.6836L70.9045,39.04l.5682.5351h1.5254l1.3863-.1291,1.9486.1291,1.3324-.05,2.0055.3921,1.9386-.068,2.0925-.2741,1.8016-.1291,2.7757-.406,2.4536.09-.0881-1.0312V35.821l-.142-1.4774-.271-1.2054-.5582-1.0743H87.8682L86.2,32.3311l-2.4977.134-1.8125-.134-1.5955.146-.6231-1.0894-.143-1.0652v-.81l.143-1.5985-.22-1.2932.6321-.4642,1.6745-.2651,1.7935-.2679,1.82-.2741,2.4968-.2641.9772-.6723.4152-1.3373V21.8662l-.2831-1.3435L88.5622,19.45l-.5781-.5752-1.9205.17h-5.84l-.9792-.4039v-3.214l.102-1.0122L80.64,13.945h1.6662l1.8085-.2691,1.5256-.403,1.8115-.3993,1.1673-.346.083-1.6685.4111-2.8178.135-1.4713-.8251-1.4763a7.426,7.426,0,0,0-1.5274-.4052c-.4182,0-1.95.263-1.95.263l-1.0742.5291-2.1146.1443L78.98,5.8938l-2.2356.134-1.8035.1352H71.8867L69.341,5.8778l.7373,1.6264Z"></path>
  <path class="cls-1"
    d="M39.6431,34.6877l.0559,2.1445.4382,1.3663.7581,1.2144.8762.8463,1.2584.6062,1.8384.358,1.6776-.358,1.9726-.6943,1.5274-1.6194.263-1.9246-.5021-2.91-.3751-2.0364-.3741-1.8425-.3751-1.8175.042-1.8816,1.5213-.288,1.3143-.2831.4073,1.1443.7232,1.5514.63,1.6974.6283,1.6935.382,1.3324.3762,1.3324.373.8491.4351,1.4746.1891,1.19.8841.4872,2.07.518h1.5225l1.6763-.2749,1.3644.0869.3941-1.2992-.374-2.1828L62.111,32.02l-.629-2.3036-.63-2.3006-1.1242-2.4266-.5032-1.4556-.162-1.1212.7842-.4541,2.01-.7262L63.6155,20.02l.7582-1.6925.12-2.4247V8.5045L64.2307,7.23l-.7422-1.2663L62.7332,4.99,61.482,4.5065,60.7238,4.38l-.9962-.117H56.5885s-1.1533.4012-1.5763.201c-.4331-.201-.9073.1272-1.4223-.0959a5.3662,5.3662,0,0,0-2.1516.2571H48.8l-2.0086.1219L45.04,5.2317,43.03,6.08l-2.0086.3622-.9192.7881.1711,1.0332.14,2.5018-.0139,1.62v3.0308l-.262,3.029v3.0278l-.3741,2.7907v2.6648l-.2553,3.2758.1353,2.1787ZM49.8068,11.0552l1.2564-.244,1.88-.244,1.8885.1208,1.3934.4573.107,1.4823.3791,1.6946-.1231.9722-.256,1.0913-.2141.5832-1.0382.7482-1.7595.61-1.2523.4833-1.8865.3571-1.0573.382-.4-8.12Z"></path>
  <path class="cls-1"
    d="M183.62,31.735l.288,1.1342.7162,2.2956.94,1.0713a2.2453,2.2453,0,0,0,.86.562c.5.16,2.0128.5243,2.0128.5243a7.8993,7.8993,0,0,0,1.6124.7391c.386.0391,2.6627.5773,2.6627.5773s.118.01.29.024l.0539.5391c.1341.263,6.66.9612,7.056.9633a18.866,18.866,0,0,0,2.3286-.4132l.5982.0491,2.18.1631,1.81-.1121,1.93.026,1.5865-.5031.9323-.4242.5242-1.6954.1961-2.3577.296-2.0185.02-.003-.034-2.2227.282-1.8425.136-1.6064a27.8983,27.8983,0,0,0,.118-2.9737,11.6542,11.6542,0,0,1,.18-2.2227l.184-2.3505-.176-2.4979-.1582-2.8747-.044-2.4917.1842-2.3476-.11-1.8715-.1422-1.3824-1.0743-.95-1.2842-.0949-.89-.0711-.8983-.0641-1.03-.08-.89-.0732-1.0242-.069-2.5628-.202-.1559.2342-.5641-.1211-1.5326-.1131-1.9365-.0191L197.04,4.5344l-1.9365.0971-1.1644.034-2.0527-.154-1.42.138-1.3043.152-1.7865-.136-1.0544.296-.828.6782-.3923,1.5854-.302,2.2155.0621,2.3678-.136,1.6095-.1342,1.6045-.034,2.11-.1361,1.6055-.1759,2.0985-.32,2.3337-.016,1.8706-.0919,1.1132-.1121,1.3584-.128,1.4833.1359,1.5024Zm8.6824-10.156V19.9627l.0521-2.2356.2619-1.6005.3581-1.2124.9643-.7981,1.32-.3941a9.3882,9.3882,0,0,0,1.6724.002,2.6636,2.6636,0,0,1,.36-.0412l.032.0082,1.3244.0189,1.2124.12,1.4323.4142,1.3084.22,1.3164.3131.91.214.3021.3542.25,1.4615.464,2.1505.1381,1.5025-.1121,2.8547-.1479,1.85-.03,1.9906-.4181,1.9545-.28,1.8425L204.39,32.024l-.9643.7953-1.2883.03s.1961.034.464.0919l-1.1843.0221-1.8045-.0121-1.4123.016-1.2884-.0979-1.2484-.348-1.2682-.3442-.6023-.5441-.5941-.5412-.5342-1.2863-.184-2.6227-.264-3.0029Z"></path>
  <path class="cls-1"
    d="M152.2958,10.237l.1121,1.6275.736.5032,1.8965.195,1.7925.2991,1.8845-.111,1.6966-.007,1.0441-.0052.8084-.2089.2339,1.6534-.104,2.2405-.1,3.1919.008,2.4127-.0961,1.9226-.0659,2.0254.0079,1.83.0281,6.9518s.0059,1.2264.0059,1.5905c.0021.3651.01,1.7116.01,1.7116s.034.161.08.4029l.7842.0471,1.3043.371,2.8727.3192,1.7665.026,1.3965-.006.9323-.7341-.0441-.4362.01-.009-.0881-.8872-.0319-1.6794-.0062-1.23-.01-1.9507-.22-1.95-.1121-1.9506-.1139-1.7523-.008-1.8407-.0062-1.7474.0961-1.9535.2041-2.3626.096-2.2587.3161-2.0586.2061-1.2384.5861-.336,1.07-.0821,4.6311-.0188,1.0044-.1471.9182-.15.4222-.0739.438-.2162.3421-.9442.1422-.8622.2139-1.0854.2-1.37-.068-1.01v-.73l-.54-1.4923-.048-.0781-.3261-.255-.4642-.3472-.9141-.3432-.9222-.1119-1.1464-.1161-8.8344.0381-2.0707-.11-2.1745.007-2.5206-.0992L159.15,3.133l-1.8465.01-1.26-.1121-1.4105.0062-1.3164.288-.7362.6121-.304,1.1194.0041,1.5253-.2,1.8306Z"></path>
  <path class="cls-1"
    d="M218.4837,38.7787l1.07.4072.8582.157a5.5077,5.5077,0,0,0,1.55.6783c.4942.02,2.0785.096,2.0785.096l1.97-.0241.7363-.201.3882-2.5978.264-2.8428s.0781-1.54.1041-1.9c.014-.3581.36-2.2426.36-2.2426l.3223-1.65.0879-1.6665.7442-.193.6863.9833s.112.243.322.8453a8.5958,8.5958,0,0,1,.28,1.8015l.5321,1.4514.056,1.3153.1561,1.6744.0059.13.23.8043.2521.8962c.048-.206.08-.339.08-.339l.404.9911.246.9913.238.3951.0842.2662.3981.3851.3961.4.6562.4091.4881.246.1861.0652,1.1721.0188,1.8647-.262,1.2463-.2761.8422-.6541.2161-.8172.76-2.8158.4841-2.3617.48-2.1187.092-.407.68-1.3054.5762-1.7175.6381-1.1121.3442-.7263.328,1.2363.2741,1.9146.15,1.6753.0539,1.4324L244.865,33.28l.244,2.27.1922,1.0853.068,1.07.28,1.5655.3221.9622.7022.6322s.9782.163,1.4624.3091a11.6446,11.6446,0,0,0,1.82.3251c.3622.02,2.2086-.13,2.2086-.13l1.3545-.178,1.1783-1.3635.0879-1.7825-.608-2.4095-.5822-3.004-.2561-2.1534-.62-2.1756-.3622-2.3968-.0781.0991-.2078-1.1553-.1322-1.8786-.052-1.5444-.09-1.4313h-.0021l.0021-.07-.3362-2.7487-.1281-2.3887-.2359-2.5086-.2622-1.9166-.0439-1.6664-.1641-1.5614L250.1,5.5628l-.9562-.6381L248.3,4.7634s-1.0923-.17-1.5823-.1951c-.4861-.0229-2.4447,0-2.4447,0l-1.7606.7523s-.128.1061-.15.5822a25.9772,25.9772,0,0,1-.7481,2.6978l-.4562,1.53-.7062,1.99-.7484,2.3407-.696,1.7525-.5621,1.2753-.8023,1.3944-.536.9233-.4223.9382-1.2023-.54L234.36,18.4842l-.7682-1.8254-1-1.95-.9-1.5923-.89-1.71-1.09-2.6617-.8761-1.95-.6482-1.5844-.8022-1.2283-.3241-.11-.3321-.0891-.8462-.0941-.67.0691-.8463-.0181-.93.0652-.6722.0709-.7682.086-1.2522.6512-.7842.7963L219.74,7.1831l-.134,2.61.2921,1.4434-.2161,1.8935-.1,1.7845-.212,1.8906v2.2606l-.2041,4.0371.0359,1.5524L219.106,26.67l-.1341,2.3726-.218,2.0107-.186,1.18-.2942.9424-.102,2.0135-.176,1.0653.13,2.0326Z"></path>
  <path class="cls-1"
    d="M1.2846,36.2741c0,.3311.3411,2.0126.3411,2.0126l1.1673.7761.5742.6773,1.16.172,1.1062.3912,1.1073.2759,1.5655.0742L9.8839,40.61l1.68.075,2.1335-.0139,2.3528-.0132,1.6905-.034,1.4533-.0479,2.7047-.2221,2.2657-.3472,1.9185-.145,1.79-.143,2.2778-.4691,1.59-.3831,1.7525-1.2963.8252-.8733.3782-.8973-.1361-1.8293L34.5055,32.71l.0662-1.2544-.2752-1.1572.3921-8.0972-.2051-2.7487-.3791-1.3955-.9612-.8442-1.1132-.278-1.34-.1782-1.4642.1682-1.12-.05-1.6895.1469-1.2592.2872-1.68.1461-1.4784.3959-1.9375.4833-1.2533.3991-1.9787,1.04-.81.9722-.2031,1.9456-.203,1.9555v3.701l2.2547.3992.7881.0369L20.12,28.74l1.9045.0831,1.2564-.5152.2569-.6742.035-.7973.1592-.9091.0719-1.4764.1092-.4421.192-.2862.3791-.117.5521-.0589.81-.1211h2.23l.2411.18.329.1152-.142.8241-.0561,1.2543-.1909,1.8186.0358,1.3723-.1739,1.2533L27.6127,31.48l-.9153.41-1.2582.4031-1.35.1642-1.4785.2751-1.5884.3869-1.6844.0361-1.6785-.076s-1.7954.032-2.2436.016c-.4491-.0279-1.4545-.074-1.4545-.074l-2.92-.13-.9692-.7342-.295-.9162-.052-1.2625.5139-10.4938.2142-1.9375.3111-1.8125.3942-1.1222.5971-.7744,1.3724-.5021,1.4774-.3952,1.4813-.505,2.1387-.129,2.1374-.246,1.5274-.4372h.7453l.3841-.1221.2512-.016.7381-.289.9153.149H28.58l1.0091-.072h.9233l.4112.0961,1.1672-.0241.9174.1681.4462-.7924.381-1.64L34.27,7.9194l.1221-.4531.008-.02.0239-.1069.082-.33.1831-.9171L34.64,4.9375l-.5163-.8231-.8722-.7233-.67-.027-.1721-.0529L31.59,3.2481l-1.0031.069-.7162.07-1.3324.135-2.2667.2331-1.34.056-2.48.113-1.4785.2741-1.5635.048-1.0173.178-2.4886.2362L14.34,4.5864l-1.9125.0222L9.854,4.4965l-1.4615.1641-.6963.422-1.0253.2952-1.3252.5451-.8133.447L3.2541,7.94a6.4661,6.4661,0,0,1-.35,1.5686c-.2251.4449-.9233,4.48-.9233,4.48l-.355,3.3578-.3411,3.6939s.115,2.2438.115,2.5769c0,.335-.115,3.1337-.115,3.1337L.9353,29.3263l.3493,4.4812Z"></path>
</svg>
