<svg version="1.1" id="Layer_1" xmlns="http://www.w3.org/2000/svg"
  xmlns:xlink="http://www.w3.org/1999/xlink" x="0px" y="0px" width="148px" height="160px"
  viewBox="0 0 148 160" enable-background="new 0 0 148 160" xml:space="preserve">
							<path id="_x38_2d6a" d="M111.029,105.4c5.201,0,11.75-0.11,16.371,6.06c3.09,4.24,3.57,8.96,3.57,13.681
								c0,19.569-12.521,20.039-21.591,20.239h-5.2v-39.989L111.029,105.4z M87.029,91.03v68.03h26.801c7.109-0.101,26.1-0.48,32.37-21.48
								c0.86-2.9,1.729-7.24,1.729-13.12c0-9.53-2.699-19.069-9.729-25.43c-8.671-7.71-21.2-7.9-29.49-8H87.029z"></path>
							<path id="_x38_2d6b" d="M0.82,91.03h19.56l14.65,23.319c0.779-1.78,1.716-3.486,2.8-5.1l11.65-18.22h19.38
								l-25.74,35.85v32.181H26.36v-31.701L0.82,91.02"></path>
							<path id="_x38_2d6c" d="M145.141,0.32v37.96c-0.101,6.56-0.201,13.11-3.951,19.28
								c-7.33,11.75-22.459,12.33-25.35,12.33c-5.1,0-11.18-1.25-15.8-3.66c-13.101-6.75-13.101-18.7-13-27.95V0.32h17.14v42.4
								c0,3.47,0.1,6.36,1.26,8.48c2.11,3.56,6.74,4.62,10.98,4.62c11.561,0,11.561-7.9,11.67-13.2V0.32H145.141"></path>
							<path id="_x38_2d6d" d="M9.06,0.32h54.92v13.3L26.9,54.95h36.9v13.4H5.88V55.63l37.68-42.02H9.06V0.32"></path>
						</svg>
